<svg xmlns="http://www.w3.org/2000/svg" version="1.1" xmlns:xlink="http://www.w3.org/1999/xlink" xmlns:svgjs="http://svgjs.dev/svgjs" width="128" height="128" viewBox="0 0 128 128"><g transform="matrix(0.8046875,0,0,0.8046875,12.221578124999994,21.334477353037947)"><svg viewBox="0 0 96 80" data-background-color="#000000" preserveAspectRatio="xMidYMid meet" height="106" width="128" xmlns="http://www.w3.org/2000/svg" xmlns:xlink="http://www.w3.org/1999/xlink"><g id="tight-bounds" transform="matrix(1,0,0,1,0.25950000000000273,0.02424201103418966)"><svg viewBox="0 0 95.481 79.95151597793162" height="79.95151597793162" width="95.481"><g><svg viewBox="0 0 95.481 79.95151597793162" height="79.95151597793162" width="95.481"><g><svg viewBox="0 0 95.481 79.95151597793162" height="79.95151597793162" width="95.481"><g id="textblocktransform"><svg viewBox="0 0 95.481 79.95151597793162" height="79.95151597793162" width="95.481" id="textblock"><g><svg viewBox="0 0 95.481 79.95151597793162" height="79.95151597793162" width="95.481"><g><svg viewBox="0 0 95.481 79.95151597793162" height="79.95151597793162" width="95.481"><g><svg xmlns="http://www.w3.org/2000/svg" data-name="Layer 1" viewBox="1.2154484840963402 9.15 97.56910303180732 81.69999999999999" x="0" y="0" height="79.95151597793162" width="95.481" class="icon-icon-0" data-fill-palette-color="accent" id="icon-0"><path d="M9.39 66.81V83.69A7.17 7.17 0 0 0 16.55 90.85H83.71A7.17 7.17 0 0 0 90.87 83.69V65.31A1.5 1.5 0 0 0 89.37 63.81H78A1.5 1.5 0 0 0 76.5 65.31V76.53H23.72V66.81H28.89A3 3 0 0 0 31.38 62.12L19 43.8A3 3 0 0 0 16.51 42.47 3 3 0 0 0 14.01 43.8L1.73 62.13A3 3 0 0 0 4.23 66.81ZM16.56 45.48L28.89 63.81H22.22A1.5 1.5 0 0 0 20.72 65.31V78A1.5 1.5 0 0 0 22.22 79.5H78A1.5 1.5 0 0 0 79.5 78V66.81H87.83V83.69A4.17 4.17 0 0 1 83.67 87.85H16.55A4.17 4.17 0 0 1 12.39 83.69V65.31A1.5 1.5 0 0 0 10.89 63.81H4.21ZM95.78 33.19H90.61V16.31A7.17 7.17 0 0 0 83.45 9.15H16.29A7.17 7.17 0 0 0 9.13 16.31V34.69A1.5 1.5 0 0 0 10.63 36.19H22A1.5 1.5 0 0 0 23.5 34.69V23.47H76.28V33.19H71.11A3 3 0 0 0 68.62 37.88L81 56.2A3 3 0 0 0 83.49 57.53 3 3 0 0 0 85.99 56.2L98.27 37.87A3 3 0 0 0 95.77 33.19ZM83.44 54.52L71.11 36.19H77.78A1.5 1.5 0 0 0 79.28 34.69V22A1.5 1.5 0 0 0 77.78 20.5H22A1.5 1.5 0 0 0 20.5 22V33.19H12.12V16.31A4.17 4.17 0 0 1 16.28 12.15H83.45A4.17 4.17 0 0 1 87.61 16.31V34.69A1.5 1.5 0 0 0 89.11 36.19H95.79ZM50 68.47A3 3 0 0 0 52.07 67.61L64.87 54.83A10.9 10.9 0 0 0 50 38.9 10.9 10.9 0 0 0 35.13 54.81L47.93 67.61A3 3 0 0 0 50 68.47M34.93 47.1A7.9 7.9 0 0 1 48.42 41.52L48.95 42.05A1.5 1.5 0 0 0 51.07 42.05L51.58 41.54A7.9 7.9 0 1 1 62.75 52.71L50.06 65.49 37.25 52.68A7.86 7.86 0 0 1 34.93 47.1" fill="#ffffff" data-fill-palette-color="accent"></path></svg></g></svg></g></svg></g></svg></g></svg></g></svg></g><defs></defs></svg><rect width="95.481" height="79.95151597793162" fill="none" stroke="none" visibility="hidden"></rect></g></svg></g></svg>