<?xml version="1.0" encoding="UTF-8"?>
<svg version="1.1" xmlns="http://www.w3.org/2000/svg" width="2000" height="378">
<path d="M0 0 C13.86 0 27.72 0 42 0 C42 17.16 42 34.32 42 52 C70.05 52 98.1 52 127 52 C131.68935874 61.37871748 136.1669708 70.70300686 140.3125 80.3125 C141.2058274 82.3711781 142.10054183 84.42925021 142.99526978 86.48731995 C143.63176216 87.95167534 144.26780163 89.41622767 144.90341187 90.88096619 C147.53208733 96.93586727 150.18271535 102.98097466 152.83984375 109.0234375 C153.45204521 110.41579872 153.45204521 110.41579872 154.07661438 111.83628845 C155.70239584 115.53322216 157.32857026 119.22998252 158.95547485 122.92642212 C160.09085414 125.50661042 161.22520442 128.08724896 162.359375 130.66796875 C162.86784218 131.82218826 162.86784218 131.82218826 163.38658142 132.99972534 C163.70212479 133.71806549 164.01766815 134.43640564 164.34277344 135.17651367 C164.61587341 135.79725266 164.88897339 136.41799164 165.17034912 137.05754089 C166.15236169 139.35672397 167.07859329 141.6759528 168 144 C171.26206358 136.16702841 174.03945338 128.20605628 176.73828125 120.1640625 C177.18634414 118.83611902 177.63468917 117.50827071 178.08329773 116.18051147 C179.25839566 112.70056809 180.43036666 109.21958062 181.60144043 105.73828125 C183.68508623 99.54565016 185.77393466 93.35477203 187.86328125 87.1640625 C188.0861594 86.50331978 188.30903755 85.84257706 188.53866959 85.16181183 C192.27839045 74.07875043 196.10671466 63.03008011 200 52 C209.9 52 219.8 52 230 52 C228.14916822 57.55249534 226.34676434 62.78433328 224.09375 68.13671875 C223.81709503 68.79704102 223.54044006 69.45736328 223.25540161 70.13769531 C222.65531665 71.56921582 222.05380165 73.00013755 221.45098877 74.43051147 C219.77022131 78.41948905 218.10088955 82.41325788 216.4296875 86.40625 C216.07321136 87.25716721 215.71673523 88.10808441 215.34945679 88.98478699 C211.47613184 98.23660802 207.64912029 107.50743652 203.82473755 116.77957153 C202.61969403 119.70036064 201.41342914 122.62064242 200.20678711 125.54077148 C196.64787734 134.15460898 193.09241272 142.76977239 189.5559845 151.39286804 C174.32281777 188.52657241 158.63269731 225.63812307 136 259 C132.11747569 257.57593543 128.74960259 255.7615746 125.25 253.5625 C124.28578125 252.96566406 123.3215625 252.36882812 122.328125 251.75390625 C120 250 120 250 119 247 C120.04467773 244.52661133 120.04467773 244.52661133 121.68359375 241.58203125 C122.2780127 240.49986328 122.87243164 239.41769531 123.48486328 238.30273438 C124.1292334 237.15095703 124.77360352 235.99917969 125.4375 234.8125 C126.41568714 233.03566679 127.38972788 231.25660655 128.36334229 229.4772644 C129.32330872 227.72297127 130.28591023 225.97012092 131.24853516 224.21728516 C134.6869774 217.90117255 137.91779864 211.49656978 141 205 C141.46277344 204.02933594 141.92554688 203.05867187 142.40234375 202.05859375 C145.17564134 195.79299549 145.29127791 191.58937332 142.90283203 184.95019531 C142.44247559 183.91991211 141.98211914 182.88962891 141.5078125 181.828125 C140.97776611 180.62953857 140.44771973 179.43095215 139.90161133 178.19604492 C139.30949682 176.88065643 138.71728979 175.56530958 138.125 174.25 C137.50003604 172.84453862 136.87595663 171.43868363 136.25268555 170.0324707 C134.89753889 166.97820353 133.53756979 163.9261454 132.17431641 160.87548828 C129.93921911 155.86986612 127.72367154 150.85572862 125.51171875 145.83984375 C124.73576899 144.08064314 123.95980859 142.32144723 123.18383789 140.56225586 C122.79406769 139.67859344 122.40429749 138.79493103 122.00271606 137.88449097 C119.99653093 133.33854057 117.98662421 128.79423736 115.9765625 124.25 C115.57162064 123.33447861 115.16667877 122.41895721 114.74946594 121.47569275 C112.63116 116.68677363 110.51243772 111.89803881 108.39355469 107.109375 C106.23728532 102.23616458 104.08175419 97.36262813 101.92660522 92.48892212 C100.72424448 89.77057349 99.52095776 87.05263611 98.31762695 84.3347168 C94.15037132 74.91511363 90.03579185 65.47673221 86 56 C85.67 60.29 85.34 64.58 85 69 C70.81 69 56.62 69 42 69 C42 110.25 42 151.5 42 194 C28.14 194 14.28 194 0 194 C0 152.75 0 111.5 0 69 C-8.58 69 -17.16 69 -26 69 C-26 63.39 -26 57.78 -26 52 C-17.42 52 -8.84 52 0 52 C0 34.84 0 17.68 0 0 Z " fill="#FFFFFF" transform="translate(718,66)"/>
<path d="M0 0 C1.78027589 1.9807043 3.24934727 3.82735987 4.75 6 C5.21132324 6.6482373 5.67264648 7.29647461 6.14794922 7.96435547 C11.37110327 15.381066 16.36770916 22.95833251 21.37524414 30.52148438 C26.03998518 37.56654074 30.73647182 44.58865531 35.47265625 51.5859375 C36.0281012 52.40659698 36.58354614 53.22725647 37.15582275 54.07278442 C39.37418908 57.3490018 41.59342399 60.62462391 43.81524658 63.89849854 C46.79622213 68.29123268 49.76955558 72.68882693 52.72463989 77.09902954 C53.53948898 78.31359163 54.35685001 79.52647469 55.17745972 80.7371521 C56.19318802 82.23877356 57.19482414 83.74990064 58.1953125 85.26171875 C58.99799561 86.46380981 58.99799561 86.46380981 59.81689453 87.69018555 C61.89188521 91.74125588 61.97023589 95.61083765 61 100 C58.77166623 104.53919842 56.49990169 106.79270319 52 109 C48.86206055 109.34057617 48.86206055 109.34057617 45.38671875 109.29296875 C43.70002075 109.28172974 43.70002075 109.28172974 41.97924805 109.27026367 C40.56297119 109.24295166 39.14669434 109.21563965 37.6875 109.1875 C33.170625 109.125625 28.65375 109.06375 24 109 C24 123.52 24 138.04 24 153 C103.2 153 182.4 153 264 153 C264 135.51 264 118.02 264 100 C268 95 268 95 270.69396973 94.37181091 C271.72115112 94.37084915 272.74833252 94.36988739 273.80664062 94.36889648 C274.9746521 94.35636337 276.14266357 94.34383026 277.34606934 94.33091736 C278.60342896 94.34417557 279.86078857 94.35743378 281.15625 94.37109375 C282.45067017 94.36868179 283.74509033 94.36626984 285.07873535 94.36378479 C287.81599383 94.36092916 290.55243296 94.37560235 293.28955078 94.40307617 C296.79376164 94.43716086 300.29650788 94.43113982 303.80078888 94.4124136 C307.14858768 94.3992884 310.4959614 94.41756223 313.84375 94.43359375 C315.72978943 94.42615395 315.72978943 94.42615395 317.65393066 94.41856384 C318.82194214 94.43440018 319.98995361 94.45023651 321.19335938 94.46655273 C322.22054077 94.47275131 323.24772217 94.47894989 324.30603027 94.4853363 C327 95 327 95 329.33056641 96.4822998 C331.74677369 100.12622165 331.55842418 103.58946467 331.51757812 107.81665039 C331.52809204 109.15164581 331.52809204 109.15164581 331.53881836 110.51361084 C331.55643364 113.4586095 331.54475603 116.4026476 331.53125 119.34765625 C331.53394557 121.40067224 331.53782853 123.45368698 331.54284668 125.50669861 C331.54874791 129.81505456 331.54016472 134.12307906 331.52148438 138.43139648 C331.49879507 143.93010943 331.51175031 149.42803707 331.53577423 154.92672062 C331.55030124 159.17093198 331.54559297 163.41496059 331.53526306 167.65917778 C331.53260957 169.68478935 331.5358166 171.71041794 331.54518127 173.7360096 C331.59262483 186.89336108 331.60297013 199.80961414 322 210 C312.99321899 218.35497449 303.70427325 219.4465249 291.76063538 219.38768005 C290.44509735 219.39306559 289.12955932 219.39845113 287.77415651 219.40399987 C284.14241815 219.41840205 280.51090774 219.41422627 276.87915719 219.40683305 C272.95473062 219.4020907 269.03035262 219.41462061 265.10594177 219.42485046 C257.42554557 219.44202263 249.74523124 219.44288181 242.06482083 219.43763756 C235.8208334 219.43359186 229.57687012 219.43504417 223.33288383 219.44038582 C222.44332415 219.44113424 221.55376447 219.44188266 220.63724844 219.44265376 C218.82996555 219.44418528 217.02268267 219.44572363 215.21539979 219.44726873 C198.27770933 219.46098792 181.34006509 219.45556006 164.40237569 219.44408352 C148.91586016 219.43415062 133.42946411 219.44709383 117.94296701 219.47101771 C102.02978673 219.49541499 86.11666209 219.5050151 70.20346349 219.49836498 C61.27404044 219.49487431 52.34470926 219.49709488 43.41530037 219.51461601 C35.81438778 219.5293458 28.21363177 219.52996324 20.61272223 219.5125451 C16.73698776 219.50403931 12.86153294 219.50187508 8.98581314 219.51719666 C4.77909873 219.53362049 0.57305752 219.51888188 -3.63365173 219.50120544 C-5.46007852 219.51561295 -5.46007852 219.51561295 -7.32340282 219.53031152 C-18.63453411 219.43259198 -26.58062794 216.38998836 -34.796875 208.57421875 C-41.46883746 200.77843282 -43.1620011 191.96673179 -43.11352539 181.99682617 C-43.11367142 181.20605682 -43.11381744 180.41528748 -43.1139679 179.60055542 C-43.11327362 176.99799821 -43.105504 174.39551339 -43.09765625 171.79296875 C-43.09579035 169.98407531 -43.09436726 168.17518136 -43.09336853 166.36628723 C-43.08955694 161.61356197 -43.07973825 156.86086744 -43.06866455 152.1081543 C-43.05842123 147.2550498 -43.05386465 142.40194032 -43.04882812 137.54882812 C-43.03811475 128.03253861 -43.02105465 118.51627186 -43 109 C-43.81678223 109.02094727 -44.63356445 109.04189453 -45.47509766 109.06347656 C-49.19160555 109.1468513 -52.90791633 109.19872988 -56.625 109.25 C-57.91019531 109.28351563 -59.19539063 109.31703125 -60.51953125 109.3515625 C-72.39566925 109.47463129 -72.39566925 109.47463129 -77 105 C-79.59724395 101.19070888 -80.6048687 97.76530523 -80.41578674 93.11743164 C-78.98277184 85.81967347 -73.06467917 78.91700995 -68.94140625 72.875 C-68.36390625 72.02190247 -67.78640625 71.16880493 -67.19140625 70.28985596 C-65.31846078 67.52427823 -63.44054484 64.76211676 -61.5625 62 C-58.94614442 58.14182452 -56.33226683 54.28197384 -53.71875 50.421875 C-53.06572403 49.45803894 -52.41269806 48.49420288 -51.73988342 47.50115967 C-47.59725015 41.38072164 -43.48621071 35.24050225 -39.40625 29.078125 C-38.90246323 28.31794067 -38.39867645 27.55775635 -37.87962341 26.77453613 C-35.98285794 23.91109633 -34.08664078 21.04735797 -32.19998169 18.17724609 C-14.49847669 -8.75066891 -14.49847669 -8.75066891 0 0 Z M-10 13 C-18.50850698 25.31356712 -26.89277588 37.70840537 -35.25 50.125 C-52.64922269 75.96485051 -52.64922269 75.96485051 -61.13964844 88.27392578 C-61.66719727 89.0420459 -62.19474609 89.81016602 -62.73828125 90.6015625 C-63.40404175 91.56570068 -63.40404175 91.56570068 -64.08325195 92.54931641 C-65.08903541 93.85487938 -65.08903541 93.85487938 -65 95 C-64.01604248 95.01458252 -63.03208496 95.02916504 -62.01831055 95.04418945 C-58.36706226 95.10216998 -54.71643089 95.17940185 -51.06567383 95.26245117 C-49.48569757 95.29570188 -47.90560248 95.32373346 -46.32543945 95.34643555 C-44.05368421 95.37998016 -41.78301797 95.43229227 -39.51171875 95.48828125 C-38.80536789 95.49467117 -38.09901703 95.5010611 -37.3712616 95.50764465 C-32.45044388 95.65512324 -32.45044388 95.65512324 -30.31262112 97.29192066 C-28.02433599 100.26960592 -28.59745852 103.96014543 -28.63110352 107.56713867 C-28.62733704 108.44230133 -28.62357056 109.31746399 -28.61968994 110.21914673 C-28.61325045 112.1212526 -28.61359407 114.02339065 -28.61987495 115.92549706 C-28.62897273 118.93999614 -28.61877466 121.95387148 -28.60325623 124.96833801 C-28.56313002 133.53951003 -28.5619488 142.11063447 -28.56420898 150.68188477 C-28.5642602 155.92447682 -28.54503227 161.16673462 -28.51487541 166.409235 C-28.50407466 169.37177477 -28.51616926 172.33366949 -28.52870178 175.29618835 C-28.51979217 177.12609485 -28.50971599 178.95599615 -28.49829102 180.78588867 C-28.50803452 181.60333054 -28.51777802 182.4207724 -28.52781677 183.26298523 C-28.45009562 189.53069393 -26.85160964 194.74681695 -22.65892887 199.52992535 C-15.68386263 205.90603023 -7.31674049 205.28910308 1.55001831 205.26069641 C3.44831648 205.26643473 3.44831648 205.26643473 5.38496411 205.27228898 C8.88629238 205.28255602 12.38751811 205.28039048 15.88885474 205.27610838 C19.66945479 205.2736388 23.45003031 205.28265822 27.23062134 205.29014587 C34.63287587 205.3028885 42.03509412 205.3046871 49.43735777 205.30234561 C55.45494799 205.30056178 61.47252721 205.30231349 67.49011612 205.30657005 C68.34693117 205.30716524 69.20374622 205.30776043 70.08652536 205.30837366 C71.82721304 205.30958542 73.56790072 205.31079956 75.3085884 205.31201603 C91.62913092 205.32288992 107.94965277 205.32072981 124.27019645 205.31463119 C139.19490699 205.30946234 154.11955225 205.32071689 169.04424988 205.33972941 C184.37539936 205.35910971 199.70651797 205.36736346 215.03767979 205.36360615 C223.64235846 205.36169438 232.24698157 205.36417935 240.85165024 205.37832069 C248.17703475 205.39023792 255.50232951 205.39163556 262.82771526 205.37953053 C266.5635288 205.37364419 270.2991782 205.37253552 274.03498077 205.38453293 C278.08878856 205.39740006 282.14220616 205.38692149 286.1960144 205.3742218 C287.37121796 205.38159609 288.54642153 205.38897037 289.75723732 205.39656812 C297.0074303 205.34878488 304.19690616 204.95562726 310.12109375 200.3515625 C310.55550781 199.78179687 310.98992187 199.21203125 311.4375 198.625 C312.11619141 197.77808594 312.11619141 197.77808594 312.80859375 196.9140625 C315.85196791 192.0247073 316.28210956 187.65874246 316.22705078 181.99682617 C316.22748886 180.81067215 316.22748886 180.81067215 316.22793579 179.60055542 C316.2265472 176.99791325 316.21100829 174.39556065 316.1953125 171.79296875 C316.19158069 169.9840765 316.18873451 168.17518223 316.18673706 166.36628723 C316.1791138 161.61351913 316.15947654 156.86087395 316.1373291 152.1081543 C316.11323832 146.40126333 316.10408346 140.69433117 316.09242249 134.98740387 C316.07305139 126.32485051 316.03471971 117.66256669 316 109 C303.79 109 291.58 109 279 109 C278.96261719 112.86332031 278.92523437 116.72664063 278.88671875 120.70703125 C278.84053492 124.44024385 278.7892897 128.17335492 278.73754883 131.90649414 C278.70425257 134.50506443 278.67623546 137.10370787 278.65356445 139.70239258 C278.62010549 143.43342319 278.56779271 147.16378061 278.51171875 150.89453125 C278.50532883 152.06023148 278.4989389 153.2259317 278.49235535 154.42695618 C278.46266411 156.0482972 278.46266411 156.0482972 278.43237305 157.70239258 C278.42126999 158.65503494 278.41016693 159.60767731 278.39872742 160.58918762 C277.91806827 163.49538113 277.29061066 164.20640322 275 166 C272.95090485 166.37604749 272.95090485 166.37604749 270.54748535 166.37752342 C269.63071266 166.38534666 268.71393997 166.39316991 267.76938629 166.40123022 C266.76074272 166.39453805 265.75209915 166.38784589 264.71289062 166.38095093 C263.64255333 166.3856309 262.57221603 166.39031087 261.46944427 166.39513266 C257.864922 166.40714658 254.26077544 166.39760029 250.65625 166.38818359 C248.07942482 166.39224644 245.50260137 166.3975867 242.92578125 166.40411377 C236.64258095 166.41747228 230.359488 166.41456399 224.07628345 166.40587585 C218.97101267 166.39910801 213.86577203 166.39817867 208.76049805 166.4014473 C208.03462604 166.401907 207.30875403 166.40236669 206.56088591 166.40284032 C205.08641369 166.40379947 203.61194149 166.40477211 202.13746929 166.4057581 C188.30267597 166.41431819 174.46794223 166.40446817 160.63315868 166.388357 C148.75540928 166.37495324 136.87774782 166.37728116 125 166.39111328 C111.21561484 166.40715818 97.43128193 166.41349416 83.64688873 166.40427649 C82.17775981 166.40332082 80.70863089 166.4023777 79.23950195 166.4014473 C78.51661216 166.40098447 77.79372237 166.40052164 77.04892683 166.40004479 C71.94821388 166.39745162 66.847534 166.40183292 61.74682617 166.40888596 C54.88502921 166.41816534 48.02340157 166.41158403 41.16162109 166.39420319 C38.63761675 166.39022362 36.11359847 166.39139732 33.58959961 166.39799118 C30.15524436 166.40613863 26.72142979 166.39596724 23.28710938 166.38095093 C22.27846581 166.38764309 21.26982224 166.39433526 20.23061371 166.40123022 C19.31384102 166.39340697 18.39706833 166.38558373 17.45251465 166.37752342 C16.65938622 166.37703637 15.86625778 166.37654931 15.04909515 166.37604749 C12.45989477 165.90088053 11.57231846 165.08021927 10 163 C9.63250732 160.27442932 9.63250732 160.27442932 9.64355469 156.93969727 C9.64055359 155.69152725 9.63755249 154.44335724 9.63446045 153.15736389 C9.64646827 151.79370718 9.65895136 150.43005459 9.671875 149.06640625 C9.67493359 147.66780297 9.67680895 146.26919664 9.67755127 144.87059021 C9.68215371 141.93924296 9.69657489 139.00817052 9.71875 136.0769043 C9.74700615 132.32310574 9.75795918 128.5695238 9.7624321 124.81562901 C9.76659394 121.92711733 9.77641823 119.03864923 9.78830719 116.15015984 C9.79399724 114.76629928 9.79876009 113.38243458 9.80257416 111.99856758 C9.80946628 110.06225195 9.82400067 108.12596809 9.83886719 106.18969727 C9.84569519 105.08844009 9.85252319 103.98718292 9.85955811 102.85255432 C10 100 10 100 11 96 C22.55 95.67 34.1 95.34 46 95 C40.00519365 85.57681749 40.00519365 85.57681749 33.875 76.24609375 C33.41408966 75.55397797 32.95317932 74.86186218 32.478302 74.14877319 C30.98702195 71.91068594 29.49377609 69.67392197 28 67.4375 C27.48564392 66.66707367 26.97128784 65.89664734 26.44134521 65.10287476 C23.18578955 60.22768297 19.92619922 55.35520568 16.66394043 50.48449707 C15.55303957 48.82576586 14.44244471 47.16682966 13.33215332 45.50769043 C10.11080879 40.69423331 6.88432511 35.88430033 3.64990234 31.07962036 C2.63535781 29.57126504 1.62232975 28.06188858 0.61083984 26.55148315 C-0.79413568 24.45451995 -2.2048406 22.36153416 -3.6171875 20.26953125 C-4.03378632 19.64525238 -4.45038513 19.02097351 -4.87960815 18.3777771 C-6.95304876 15.17106378 -6.95304876 15.17106378 -10 13 Z " fill="#FFFFFF" transform="translate(1630,157)"/>
<path d="M0 0 C1.97458868 -0.00935994 1.97458868 -0.00935994 3.98906803 -0.01890898 C7.61861608 -0.03551647 11.24774027 -0.02739553 14.8772893 -0.0149641 C18.80102353 -0.00588048 22.72468699 -0.01989969 26.64840698 -0.03088379 C34.32535163 -0.04863839 42.00213955 -0.04484271 49.67909026 -0.03323323 C55.92019798 -0.02418711 62.16126187 -0.02298 68.40237427 -0.02732849 C69.29179846 -0.02794142 70.18122265 -0.02855436 71.09759909 -0.02918586 C72.90464045 -0.03046481 74.7116818 -0.03176166 76.51872313 -0.03307623 C93.4497594 -0.04447306 110.38070894 -0.0313824 127.31173098 -0.00987476 C141.82855093 0.00799541 156.34524291 0.00489105 170.86206055 -0.0135498 C187.73392435 -0.03497236 204.6057122 -0.04337451 221.4775877 -0.03110075 C223.27785427 -0.0298266 225.07812086 -0.02856912 226.87838745 -0.02732849 C228.20691721 -0.02640284 228.20691721 -0.02640284 229.56228596 -0.02545848 C235.79342449 -0.02200974 242.02451471 -0.02782366 248.25564575 -0.0372467 C255.85288248 -0.04848347 263.44995396 -0.04539145 271.04717183 -0.02412373 C274.92088235 -0.01363581 278.7943177 -0.00945265 282.66802597 -0.02272034 C286.87250913 -0.03690279 291.07630193 -0.01992998 295.28076172 0 C296.49769746 -0.00892289 297.7146332 -0.01784577 298.96844578 -0.02703905 C309.23264046 0.06725899 317.26558177 2.36667754 324.82006836 9.52355957 C332.37038558 17.75437748 334.97462369 25.94188422 334.86743164 36.94348145 C334.86772369 37.74444244 334.86801575 38.54540344 334.86831665 39.37063599 C334.86693541 41.98943328 334.85143172 44.60793765 334.83569336 47.22668457 C334.83195893 49.05370936 334.82911399 50.88073616 334.82711792 52.70776367 C334.8195153 57.49501158 334.79989606 62.28213636 334.77770996 67.06933594 C334.7571786 71.96291438 334.74810067 76.85651289 334.73803711 81.75012207 C334.71664675 91.33611339 334.68255187 100.92201371 334.64038086 110.50793457 C335.8655542 110.47651367 335.8655542 110.47651367 337.11547852 110.44445801 C340.8319864 110.36108327 344.54829719 110.30920469 348.26538086 110.25793457 C349.55057617 110.22441895 350.83577148 110.19090332 352.15991211 110.15637207 C363.952012 110.03417414 363.952012 110.03417414 368.64038086 114.50793457 C372.00172671 118.31745987 372.0746281 121.94492554 372.00473022 126.82119751 C371.37014671 131.5006596 368.98112457 134.792301 366.31616211 138.59777832 C365.75072693 139.44445068 365.18529175 140.29112305 364.60272217 141.16345215 C362.74111652 143.9394523 360.84782206 146.69210653 358.95288086 149.44543457 C357.64612013 151.37776418 356.34138023 153.31146181 355.03857422 155.24645996 C352.31523329 159.28434127 349.57900461 163.31305473 346.83374023 167.33605957 C342.66450017 173.45585816 338.56208073 179.61862048 334.46850586 185.78918457 C332.51246169 188.72795845 330.55495225 191.66574815 328.5965271 194.60293579 C327.34038951 196.48848838 326.08631825 198.37541928 324.8343811 200.26376343 C323.08214981 202.90212404 321.31803427 205.53212855 319.55053711 208.16027832 C319.03916199 208.93540771 318.52778687 209.71053711 318.00091553 210.50915527 C314.61699913 215.50695669 311.15599694 219.75012653 305.64038086 222.50793457 C299.56298989 223.0229677 295.56869953 222.40893419 290.64038086 218.50793457 C288.21246633 215.72153602 286.25917357 212.67692183 284.26538086 209.57043457 C282.95086629 207.58436712 281.63571273 205.59872252 280.32006836 203.61340332 C279.5800365 202.48636819 278.8401331 201.35924871 278.1003418 200.23205566 C273.80174785 193.70272697 269.39361769 187.24628 265.00921631 180.77444458 C263.39015517 178.38260116 261.77380155 175.98895268 260.15844727 173.59460449 C255.07088727 166.05373055 249.97392345 158.51973126 244.84350586 151.00793457 C243.95187613 149.70082488 243.06027376 148.39369652 242.16870117 147.08654785 C240.5208108 144.67083143 238.8684634 142.25824898 237.21362305 139.84729004 C236.48820312 138.78397461 235.7627832 137.72065918 235.01538086 136.62512207 C234.06791992 135.24236084 234.06791992 135.24236084 233.10131836 133.83166504 C230.22426632 129.25549837 229.99303655 124.76760708 230.64038086 119.50793457 C232.89471428 114.99926774 235.14744664 112.70547501 239.64038086 110.50793457 C242.77832031 110.1673584 242.77832031 110.1673584 246.25366211 110.21496582 C247.37812744 110.2224585 248.50259277 110.22995117 249.66113281 110.2376709 C251.07740967 110.26498291 252.49368652 110.29229492 253.95288086 110.32043457 C258.46975586 110.38230957 262.98663086 110.44418457 267.64038086 110.50793457 C267.64038086 95.98793457 267.64038086 81.46793457 267.64038086 66.50793457 C188.44038086 66.50793457 109.24038086 66.50793457 27.64038086 66.50793457 C27.64038086 83.99793457 27.64038086 101.48793457 27.64038086 119.50793457 C25.64038086 123.50793457 25.64038086 123.50793457 23.64038086 124.50793457 C21.77748758 124.61427932 19.91080744 124.65675364 18.04492188 124.66906738 C16.28783653 124.6834787 16.28783653 124.6834787 14.49525452 124.69818115 C13.22443527 124.70243103 11.95361603 124.70668091 10.64428711 124.71105957 C9.34466537 124.71675964 8.04504364 124.72245972 6.70603943 124.72833252 C3.95294808 124.7388401 1.19988592 124.74468454 -1.55322266 124.74816895 C-5.08195547 124.7536575 -8.61030315 124.77769363 -12.13891506 124.8061409 C-15.50284073 124.82923509 -18.86671201 124.83121454 -22.23071289 124.83605957 C-23.4995079 124.84840637 -24.76830292 124.86075317 -26.07554626 124.87347412 C-27.83735985 124.86897247 -27.83735985 124.86897247 -29.63476562 124.86437988 C-30.67020004 124.86802551 -31.70563446 124.87167114 -32.77244568 124.87542725 C-35.73993646 124.45391275 -36.58599656 123.86755284 -38.35961914 121.50793457 C-39.98762538 118.25192209 -39.51592085 114.66453935 -39.52075195 111.08605957 C-39.52571686 110.21425552 -39.53068176 109.34245148 -39.53579712 108.44422913 C-39.55044583 105.54878965 -39.55722768 102.65340508 -39.56274414 99.75793457 C-39.56849641 97.74450682 -39.57425414 95.73107909 -39.58001709 93.71765137 C-39.59053685 89.48742416 -39.59637213 85.25721599 -39.59985352 81.02697754 C-39.60531928 75.62467506 -39.629302 70.22262705 -39.65782547 64.82040405 C-39.67652269 60.65605964 -39.68166137 56.49177541 -39.68318939 52.32739258 C-39.68620397 50.33722554 -39.69419184 48.34705926 -39.70737457 46.35693359 C-39.79935014 31.39525918 -39.4844782 20.16955004 -28.76586914 8.82043457 C-20.45040495 0.97565703 -11.01593208 -0.08077166 0 0 Z M-18.38305664 19.19152832 C-18.82907227 19.77031738 -19.27508789 20.34910645 -19.73461914 20.94543457 C-20.19610352 21.52164551 -20.65758789 22.09785645 -21.13305664 22.69152832 C-24.24694854 27.30286505 -24.63944806 30.96696823 -24.58666992 36.48937988 C-24.58696198 37.28975677 -24.58725403 38.09013367 -24.58755493 38.9147644 C-24.58616369 41.55530713 -24.57061222 44.19556625 -24.55493164 46.83605957 C-24.55120078 48.66880133 -24.54835415 50.50154508 -24.5463562 52.33428955 C-24.53872551 57.15447511 -24.51908183 61.97453986 -24.49694824 66.79467773 C-24.47287761 72.57997135 -24.46370614 78.36530539 -24.45204163 84.15063477 C-24.43265714 92.93648536 -24.39433063 101.72207093 -24.35961914 110.50793457 C-12.14961914 110.50793457 0.06038086 110.50793457 12.64038086 110.50793457 C12.67776367 106.64461426 12.71514648 102.78129395 12.75366211 98.80090332 C12.79984594 95.06769072 12.85109116 91.33457965 12.90283203 87.60144043 C12.93612829 85.00287014 12.9641454 82.4042267 12.98681641 79.80554199 C13.02027537 76.07451138 13.07258815 72.34415396 13.12866211 68.61340332 C13.13505203 67.44770309 13.14144196 66.28200287 13.14802551 65.08097839 C13.16781967 64.00008438 13.18761383 62.91919037 13.20800781 61.80554199 C13.21911087 60.85289963 13.23021393 59.90025726 13.24165344 58.91874695 C13.72231259 56.01255344 14.3497702 55.30153135 16.64038086 53.50793457 C18.68947601 53.13188708 18.68947601 53.13188708 21.09289551 53.13041115 C22.0096682 53.12258791 22.92644089 53.11476466 23.87099457 53.10670435 C24.87963814 53.11339652 25.88828171 53.12008868 26.92749023 53.12698364 C27.99782753 53.12230367 29.06816483 53.1176237 30.17093658 53.11280191 C33.77545886 53.10078799 37.37960542 53.11033428 40.98413086 53.11975098 C43.56095604 53.11568813 46.13777949 53.11034787 48.71459961 53.1038208 C54.99779991 53.09046229 61.28089286 53.09337058 67.5640974 53.10205872 C72.66936819 53.10882656 77.77460883 53.1097559 82.87988281 53.10648727 C83.60575482 53.10602758 84.33162683 53.10556788 85.07949495 53.10509425 C86.55396717 53.1041351 88.02843937 53.10316246 89.50291157 53.10217647 C103.33770489 53.09361638 117.17243863 53.10346641 131.00722218 53.11957757 C142.88497158 53.13298133 154.76263304 53.13065341 166.64038086 53.11682129 C180.42476602 53.10077639 194.20909893 53.09444041 207.99349213 53.10365808 C209.46262104 53.10461375 210.93174997 53.10555687 212.40087891 53.10648727 C213.1237687 53.1069501 213.84665849 53.10741293 214.59145403 53.10788978 C219.69216698 53.11048295 224.79284686 53.10610165 229.89355469 53.09904861 C236.75535165 53.08976923 243.61697929 53.09635054 250.47875977 53.11373138 C253.00276411 53.11771095 255.52678239 53.11653725 258.05078125 53.10994339 C261.4851365 53.10179594 264.91895107 53.11196733 268.35327148 53.12698364 C269.36191505 53.12029148 270.37055862 53.11359931 271.40976715 53.10670435 C272.32653984 53.1145276 273.24331253 53.12235084 274.18786621 53.13041115 C274.98099464 53.13089821 275.77412308 53.13138526 276.59128571 53.13188708 C279.18159242 53.60725707 280.06825706 54.42585173 281.64038086 56.50793457 C282.02133179 59.27819824 282.02133179 59.27819824 282.02856445 62.67590332 C282.03802094 63.94732178 282.04747742 65.21874023 282.05722046 66.52868652 C282.05185077 67.9176057 282.04569782 69.30652205 282.03881836 70.69543457 C282.04083925 72.11885731 282.04375081 73.54227905 282.04751587 74.96569824 C282.05193857 77.94830181 282.04551021 80.93063578 282.03149414 83.91320801 C282.01440189 87.73678548 282.02424341 91.55973123 282.04221153 95.38328552 C282.05305105 98.32239544 282.04960235 101.26135554 282.04182816 104.20046997 C282.03982659 105.61028111 282.04228392 107.02010585 282.04926682 108.42990112 C282.05688309 110.39992005 282.04321665 112.36998666 282.02856445 114.33996582 C282.02617767 115.4612085 282.02379089 116.58245117 282.02133179 117.7376709 C281.64038086 120.50793457 281.64038086 120.50793457 280.32673645 122.3664093 C277.52571649 124.26247148 274.40064 123.99005374 271.12866211 124.01965332 C270.40043747 124.03760452 269.67221283 124.05555573 268.92192078 124.0740509 C266.59896615 124.1281767 264.2762172 124.16205537 261.95288086 124.19543457 C260.37668035 124.22860582 258.80050698 124.2630953 257.22436523 124.2989502 C253.3631855 124.38390387 249.50206698 124.45070333 245.64038086 124.50793457 C255.12815104 139.56976973 265.18152147 154.25582742 275.14038086 169.00793457 C277.0687654 171.86446003 278.99704045 174.7210588 280.92480469 177.57800293 C282.16107496 179.40991458 283.39788112 181.2414647 284.63525391 183.07263184 C287.17212258 186.83019149 289.7040703 190.58962676 292.18725586 194.38293457 C293.23139648 195.97621582 293.23139648 195.97621582 294.29663086 197.60168457 C294.86188477 198.47502441 295.42713867 199.34836426 296.00952148 200.24816895 C297.69868536 202.58872296 299.54587546 204.52763339 301.64038086 206.50793457 C307.06552752 199.19010239 312.23033861 191.73735511 317.25183105 184.13790894 C319.38756492 180.90603501 321.53115362 177.67938627 323.67553711 174.45324707 C324.1375351 173.7580748 324.59953308 173.06290253 325.07553101 172.34666443 C329.00597431 166.44174767 332.97319766 160.56208727 336.94897461 154.68762207 C337.87520378 153.31863014 337.87520378 153.31863014 338.82014465 151.92198181 C341.29225771 148.26915441 343.76501738 144.61677821 346.24209595 140.96731567 C347.97571741 138.41312759 349.70667278 135.8571506 351.43725586 133.30090332 C351.96439682 132.52628754 352.49153778 131.75167175 353.03465271 130.95358276 C355.494496 127.9578504 355.494496 127.9578504 356.64038086 124.50793457 C355.65642334 124.49335205 354.67246582 124.47876953 353.65869141 124.46374512 C350.00744312 124.40576459 346.35681175 124.32853272 342.70605469 124.2454834 C341.12607843 124.21223269 339.54598334 124.18420111 337.96582031 124.16149902 C335.69406507 124.12795441 333.42339883 124.0756423 331.15209961 124.01965332 C330.44574875 124.0132634 329.73939789 124.00687347 329.01164246 124.00028992 C324.09082474 123.85281133 324.09082474 123.85281133 321.95300198 122.21601391 C319.66471685 119.23832865 320.23783938 115.54778914 320.27148438 111.9407959 C320.26583466 110.62805191 320.26583466 110.62805191 320.2600708 109.28878784 C320.25363131 107.38668197 320.25397493 105.48454392 320.26025581 103.58243752 C320.26935359 100.56793843 320.25915552 97.55406309 320.24363708 94.53959656 C320.20351087 85.96842454 320.20232966 77.3973001 320.20458984 68.8260498 C320.20464106 63.58345775 320.18541313 58.34119995 320.15525627 53.09869957 C320.14445552 50.1361598 320.15655012 47.17426508 320.16908264 44.21174622 C320.16017303 42.38183972 320.15009685 40.55193842 320.13867188 38.7220459 C320.15328712 37.4958831 320.15328712 37.4958831 320.16819763 36.24494934 C320.09047647 29.97724064 318.4919905 24.76111762 314.29930973 19.97800922 C307.31329783 13.59189861 298.92581644 14.21889846 290.04566956 14.24723816 C288.14018771 14.24149984 288.14018771 14.24149984 286.19621128 14.23564559 C282.68155094 14.22537827 279.16699275 14.22754415 275.65232408 14.23182619 C271.85742813 14.23429569 268.06255664 14.22527649 264.26766968 14.2177887 C256.83767671 14.20504622 249.40771988 14.20324742 241.97771782 14.20558896 C235.93818919 14.20737267 229.89867153 14.20562134 223.85914421 14.20136452 C222.99926508 14.20076933 222.13938594 14.20017414 221.25344987 14.19956091 C219.50655945 14.19834915 217.75966904 14.19713502 216.01277863 14.19591854 C199.63456238 14.18504488 183.25636673 14.18720475 166.87814932 14.19330338 C151.89779785 14.1984732 136.91751139 14.18721508 121.93717278 14.16820516 C106.55065753 14.14882966 91.16417305 14.14057021 75.77764553 14.14432842 C67.14114075 14.14624079 58.50469131 14.14374927 49.86819649 14.12961388 C42.51643307 14.11770283 35.16475907 14.11629213 27.81299443 14.12840404 C24.06312814 14.13429449 20.31342544 14.13538764 16.56357002 14.12340164 C12.49627552 14.11055217 8.42937067 14.12100318 4.36207581 14.13371277 C3.18006846 14.12633848 1.99806111 14.1189642 0.78023535 14.11136645 C-6.29345619 14.15792289 -12.70815564 14.46974776 -18.38305664 19.19152832 Z " fill="#FFFFFF" transform="translate(1625.359619140625,1.4920654296875)"/>
<path d="M0 0 C1.42012445 1.20101954 2.81470267 2.43265783 4.1875 3.6875 C5.50814453 4.87085938 5.50814453 4.87085938 6.85546875 6.078125 C25.53387148 23.70023185 34.70787524 48.30403449 36.1875 73.6875 C37.42219539 116.80585519 20.28258994 161.85502533 -8.875 193.5625 C-10.50744134 195.28363492 -12.1508745 196.99452308 -13.8125 198.6875 C-14.32683594 199.30882812 -14.84117188 199.93015625 -15.37109375 200.5703125 C-15.84675781 200.93898438 -16.32242187 201.30765625 -16.8125 201.6875 C-19.78549156 201.20293971 -22.10534277 200.10853357 -24.703125 198.62109375 C-25.41210938 198.21826172 -26.12109375 197.81542969 -26.8515625 197.40039062 C-27.58117188 196.97951172 -28.31078125 196.55863281 -29.0625 196.125 C-29.80757812 195.70025391 -30.55265625 195.27550781 -31.3203125 194.83789062 C-33.15348961 193.79203958 -34.98332677 192.74033808 -36.8125 191.6875 C-35.4508903 187.27721298 -33.69103548 183.31011541 -31.625 179.1875 C-16.50292869 147.54686003 -12.57930491 111.1645705 -12.5 76.5 C-12.49632416 75.73498169 -12.49264832 74.96996338 -12.48886108 74.1817627 C-12.44143479 55.3441386 -12.97863617 33.79759622 -23.8125 17.6875 C-24.39 16.78 -24.9675 15.8725 -25.5625 14.9375 C-31.9810302 8.5189698 -39.88476686 6.15677828 -48.8125 5.6875 C-57.60872008 6.06001752 -65.41975787 9.2002903 -71.62890625 15.54296875 C-82.33391157 28.98459197 -83.860477 46.61708013 -84.12890625 63.1875 C-84.14755737 64.14269531 -84.1662085 65.09789062 -84.1854248 66.08203125 C-84.25322338 69.61710215 -84.31368885 73.15231063 -84.375 76.6875 C-84.519375 84.6075 -84.66375 92.5275 -84.8125 100.6875 C-67.6525 100.6875 -50.4925 100.6875 -32.8125 100.6875 C-32.8125 107.6175 -32.8125 114.5475 -32.8125 121.6875 C-49.9725 121.6875 -67.1325 121.6875 -84.8125 121.6875 C-84.8125 135.8775 -84.8125 150.0675 -84.8125 164.6875 C-100.9825 164.6875 -117.1525 164.6875 -133.8125 164.6875 C-133.97293524 139.20503647 -133.97293524 139.20503647 -134.0078125 128.2421875 C-134.03161272 120.79675725 -134.05959732 113.351526 -134.11425781 105.90625 C-134.15810351 99.89561169 -134.18171801 93.88518714 -134.19200897 87.87440109 C-134.19933144 85.59497087 -134.21362774 83.31555073 -134.23542023 81.03621292 C-134.49782325 52.42135163 -128.71702822 28.04533937 -108.4375 6.8125 C-97.2200779 -3.92194976 -82.97725707 -11.06457822 -67.8125 -14.3125 C-66.96300781 -14.49554688 -66.11351562 -14.67859375 -65.23828125 -14.8671875 C-41.82965455 -17.91004205 -19.21049061 -14.21986494 0 0 Z " fill="#FFFFFF" transform="translate(1098.8125,95.3125)"/>
<path d="M0 0 C15.39744612 11.62425156 23.56028662 28.73485592 26.90234375 47.47265625 C29.57549148 71.45533069 25.36977789 94.21811687 10.44140625 113.625 C-0.55578567 126.75068068 -16.55998779 134.27181314 -33.49633789 135.84814453 C-50.01270181 137.06433707 -63.99062901 133.65866516 -76.8203125 122.95703125 C-78.68359375 121.1875 -78.68359375 121.1875 -79.68359375 119.1875 C-80.01359375 145.2575 -80.34359375 171.3275 -80.68359375 198.1875 C-94.87359375 198.1875 -109.06359375 198.1875 -123.68359375 198.1875 C-123.68359375 129.8775 -123.68359375 61.5675 -123.68359375 -8.8125 C-118.07359375 -8.8125 -112.46359375 -8.8125 -106.68359375 -8.8125 C-103.41733338 -5.54623963 -102.54376266 -3.87014845 -100.68359375 0.1875 C-98.80895594 3.39315222 -96.83340956 6.53499835 -94.87109375 9.6875 C-93.48196415 11.97822595 -92.09601714 14.2708348 -90.71166992 16.56445312 C-89.78389004 18.16019554 -89.78389004 18.16019554 -88.68359375 19.1875 C-88.30847656 18.46304688 -87.93335938 17.73859375 -87.546875 16.9921875 C-81.07676707 4.76906168 -71.9883516 -4.91712462 -58.68359375 -9.8125 C-38.80705663 -15.74964745 -17.02471513 -11.49849756 0 0 Z M-68.33984375 16.6484375 C-79.84798214 28.68501082 -81.16250377 47.65025214 -81.03710938 63.45849609 C-80.63932995 78.97473483 -76.93015205 95.06920505 -66.68359375 107.1875 C-60.3004565 113.13571407 -54.08621185 115.72878698 -45.33203125 115.4921875 C-37.67137846 114.61087346 -31.67345205 111.29748121 -26.5 105.6328125 C-13.92821353 88.70821395 -13.58461918 64.73601629 -16.1875 44.6015625 C-18.49385808 31.81774913 -22.74730369 19.66046664 -33.625 11.78125 C-45.33758926 5.15594698 -58.63098147 8.08448822 -68.33984375 16.6484375 Z " fill="#FFFFFF" transform="translate(1459.68359375,126.8125)"/>
<path d="M0 0 C15.39744612 11.62425156 23.56028662 28.73485592 26.90234375 47.47265625 C29.57549148 71.45533069 25.36977789 94.21811687 10.44140625 113.625 C-0.55578567 126.75068068 -16.55998779 134.27181314 -33.49633789 135.84814453 C-50.01270181 137.06433707 -63.99062901 133.65866516 -76.8203125 122.95703125 C-78.68359375 121.1875 -78.68359375 121.1875 -79.68359375 119.1875 C-80.01359375 145.2575 -80.34359375 171.3275 -80.68359375 198.1875 C-87.59296875 198.208125 -94.50234375 198.22875 -101.62109375 198.25 C-103.80468506 198.259104 -105.98827637 198.26820801 -108.23803711 198.27758789 C-109.95816995 198.28050698 -111.67830347 198.28305555 -113.3984375 198.28515625 C-114.300177 198.29027222 -115.2019165 198.29538818 -116.13098145 198.30065918 C-118.3155112 198.30096882 -120.49995705 198.2499587 -122.68359375 198.1875 C-124.45470575 196.416388 -123.80873835 194.05678985 -123.81733716 191.69759226 C-123.81510643 190.90354282 -123.81287571 190.10949338 -123.81057739 189.29138184 C-123.81213738 188.45410474 -123.81369737 187.61682765 -123.81530464 186.75417852 C-123.81931823 183.92659631 -123.81612361 181.09906706 -123.81298828 178.27148438 C-123.81434216 176.25328032 -123.81612202 174.23507651 -123.81829834 172.21687317 C-123.82287423 166.71910056 -123.82108247 161.22134663 -123.81791925 155.72357368 C-123.81539645 149.98380608 -123.81773297 144.24404013 -123.81930542 138.50427246 C-123.82112735 128.86335969 -123.81872019 119.22245458 -123.81396484 109.58154297 C-123.80852218 98.41790005 -123.81028482 87.25427539 -123.81579125 76.09063292 C-123.82032171 66.524645 -123.82097326 56.95866261 -123.81835258 47.39267397 C-123.81678944 41.67105593 -123.81659706 35.94944648 -123.81988907 30.22782898 C-123.82276681 24.85008065 -123.82079388 19.47235598 -123.81499481 14.09461021 C-123.81366669 12.11480944 -123.8140622 10.13500669 -123.81625748 8.15520668 C-123.81896696 5.46464982 -123.81559035 2.77417004 -123.81057739 0.08361816 C-123.81280811 -0.71043128 -123.81503884 -1.50448071 -123.81733716 -2.32259226 C-123.79774359 -7.69835016 -123.79774359 -7.69835016 -122.68359375 -8.8125 C-109.10734009 -10.47234185 -109.10734009 -10.47234185 -104.67578125 -7.4375 C-103.08019509 -4.99157152 -101.92579192 -2.45864088 -100.68359375 0.1875 C-98.80422706 3.39018223 -96.83131828 6.53386567 -94.87109375 9.6875 C-93.48213064 11.97832536 -92.09601654 14.2708358 -90.71166992 16.56445312 C-89.78389004 18.16019554 -89.78389004 18.16019554 -88.68359375 19.1875 C-88.37808594 18.52105469 -88.07257813 17.85460937 -87.7578125 17.16796875 C-81.43274162 4.42874149 -71.8384736 -4.36964863 -58.68359375 -9.8125 C-38.92561449 -15.89976125 -16.9053879 -11.41790391 0 0 Z M-68.33984375 16.6484375 C-79.84798214 28.68501082 -81.16250377 47.65025214 -81.03710938 63.45849609 C-80.63932995 78.97473483 -76.93015205 95.06920505 -66.68359375 107.1875 C-60.3004565 113.13571407 -54.08621185 115.72878698 -45.33203125 115.4921875 C-37.52146014 114.59362622 -31.69768318 111.19760378 -26.43359375 105.4453125 C-14.05208635 89.47095697 -14.17655514 65.98069762 -15.90185547 46.75537109 C-17.57817343 33.97234187 -21.82958584 21.8487509 -31.68359375 13.1875 C-43.32182007 4.75739643 -58.08648057 7.60419733 -68.33984375 16.6484375 Z " fill="#FFFFFF" transform="translate(1283.68359375,126.8125)"/>
<path d="M0 0 C5.40542593 4.4719231 9.3070526 9.20034182 12.76953125 15.3046875 C13.38030518 16.37444824 13.9910791 17.44420898 14.62036133 18.54638672 C15.07564209 19.3560791 15.53092285 20.16577148 16 21 C16.42595459 20.15179688 16.85190918 19.30359375 17.29077148 18.4296875 C18.91952755 15.26646377 20.60188414 12.14676683 22.3293457 9.03710938 C23.06127675 7.69160757 23.77026954 6.33334236 24.4543457 4.96289062 C24.78716553 4.29966797 25.11998535 3.63644531 25.46289062 2.953125 C25.74982788 2.3643457 26.03676514 1.77556641 26.33239746 1.16894531 C28.20700618 -1.80429031 30.68067806 -4.3589711 33 -7 C38.61 -7 44.22 -7 50 -7 C50 39.86 50 86.72 50 135 C36.14 135 22.28 135 8 135 C7.67 130.38 7.34 125.76 7 121 C5.9275 122.19625 4.855 123.3925 3.75 124.625 C-6.47883597 134.87200442 -19.96697247 137.85868049 -34 138 C-52.94132198 136.99426609 -69.69060695 130.57185464 -82.91015625 116.515625 C-98.78251438 97.40945932 -101.10778724 74.99808625 -100 51 C-98.39183797 33.80309951 -89.67299787 16.65247828 -77 5 C-55.30474192 -12.26863178 -23.15852341 -17.02608546 0 0 Z M-43.96875 17.8046875 C-56.36940649 30.43669953 -58.07757942 49.08768648 -58 66 C-57.39225658 82.05588122 -54.94894929 99.85724233 -42.6875 111.4375 C-36.73089597 116.04864303 -29.93101593 117.62832879 -22.4765625 117.33984375 C-14.12271389 116.19349544 -8.08194572 111.54313941 -3 105 C8.92935498 86.23812761 10.37557239 62.30605422 6 41 C3.04454091 29.3912977 -1.43660744 19.31146096 -12 13 C-22.66379405 7.10685066 -35.39090754 9.94166524 -43.96875 17.8046875 Z " fill="#FFFFFF" transform="translate(547,125)"/>
<path d="M0 0 C0.72703125 0.54269531 1.4540625 1.08539063 2.203125 1.64453125 C16.26994121 13.0253609 24.27524046 30.08693973 26.46875 47.78125 C27.81748624 61.96988581 25.97103772 74.97379761 20 88 C19.36964844 89.40185547 19.36964844 89.40185547 18.7265625 90.83203125 C10.3148599 107.8256154 -5.49678402 119.47607405 -23 126 C-46.64688842 133.84938468 -71.39461005 132.04823931 -93.6875 120.875 C-111.3554204 110.74773049 -123.20721409 95.66131356 -129.375 76.1875 C-134.23244568 56.32911913 -131.53093935 35.54312734 -121 18 C-108.83532491 -0.15928662 -90.18239057 -12.04220472 -68.80078125 -16.30859375 C-44.20356234 -20.37266263 -19.90301413 -14.98614525 0 0 Z M-74 9 C-88.30561756 26.04499113 -89.45424376 48.82446437 -88 70 C-86.41711732 83.54577481 -81.50839877 97.81046909 -71 107 C-63.20189433 112.2868513 -56.38459638 113.87524733 -47 113 C-37.25676079 110.62862961 -30.82352176 106.11971931 -25.44921875 97.65625 C-14.00005398 76.67125797 -13.35735879 50.85474029 -19.75 28.1875 C-22.94890347 18.56718145 -28.16546408 8.85839549 -37.26953125 3.71875 C-50.02029241 -2.20200145 -63.71084386 -1.13359654 -74 9 Z " fill="#FFFFFF" transform="translate(266,132)"/>
<path d="M0 0 C16.17 0 32.34 0 49 0 C49 50.82 49 101.64 49 154 C74.74 154 100.48 154 127 154 C127 161.59 127 169.18 127 177 C85.09 177 43.18 177 0 177 C0 118.59 0 60.18 0 0 Z " fill="#FFFFFF" transform="translate(3,83)"/>
<path d="M0 0 C14.19 0 28.38 0 43 0 C45.59875 5.919375 48.1975 11.83875 50.875 17.9375 C51.74584229 19.92007813 52.61668457 21.90265625 53.51391602 23.9453125 C57.27885978 32.51666381 61.0410939 41.08915924 64.78961182 49.66770935 C66.40737669 53.3696259 68.02702001 57.07071927 69.64678955 60.77175903 C70.41738059 62.53394286 71.18705021 64.29652993 71.95574951 66.05953979 C75.77284912 74.81319192 79.5944524 83.52165905 84 92 C84.3810791 90.85152588 84.7621582 89.70305176 85.15478516 88.51977539 C93.65948242 62.89963665 102.25406982 37.31282173 111.02201843 11.78149414 C112.36770591 7.86040153 113.68898738 3.93303785 115 0 C124.9 0 134.8 0 145 0 C143.14825317 5.55524049 141.31729604 10.88664381 139.12890625 16.28515625 C138.8549855 16.96225143 138.58106476 17.63934662 138.29884338 18.33695984 C137.38992477 20.58011901 136.47646379 22.82139213 135.5625 25.0625 C135.24142273 25.85233276 134.92034546 26.64216553 134.58953857 27.45593262 C128.00929448 43.64143345 121.30083249 59.77364231 114.5559082 75.89111328 C110.50111244 85.58256813 106.46471859 95.27982676 102.5078125 105.01171875 C88.1044699 140.37458345 72.39928825 175.23806429 51 207 C44.90465883 204.11789703 39.37038345 201.08616132 34 197 C35.56712542 191.2786013 38.43255108 186.61485985 41.4375 181.5625 C46.00214321 173.73361423 50.21210431 165.79955664 54.125 157.625 C54.58575928 156.66924072 55.04651855 155.71348145 55.52124023 154.72875977 C59.82270723 146.74118884 59.82270723 146.74118884 60.60198975 138.09744263 C59.81446589 135.95610758 58.90413417 133.92057724 57.92578125 131.859375 C57.57537277 131.07681335 57.22496429 130.29425171 56.86393738 129.48797607 C55.69955454 126.8993605 54.50600689 124.3253006 53.3125 121.75 C52.48347855 119.91961396 51.65669511 118.08821281 50.83203125 116.25585938 C49.10400897 112.42206285 47.36563904 108.59321455 45.61962891 104.76757812 C41.89864851 96.59820763 38.28825792 88.38034978 34.67303467 80.16378784 C33.10415389 76.60109216 31.52949991 73.04096132 29.95483398 69.4808197 C24.68147135 57.55743995 19.43034875 45.62432362 14.1875 33.6875 C13.81463867 32.83913574 13.44177734 31.99077148 13.05761719 31.11669922 C9.5135338 23.05177927 5.97663589 14.98374423 2.48828125 6.89453125 C2.00528564 5.7753833 1.52229004 4.65623535 1.0246582 3.50317383 C0 1 0 1 0 0 Z " fill="#FFFFFF" transform="translate(296,118)"/>
<path d="M0 0 C5.28 0 10.56 0 16 0 C19.16652271 3.27744045 20.20492736 5.01213207 22 9 C23.01488491 10.734649 24.03123844 12.4686198 25.07321167 14.18713379 C26.21040196 16.06534546 27.32062417 17.95711851 28.42382812 19.85546875 C28.79580322 20.49532715 29.16777832 21.13518555 29.55102539 21.79443359 C29.92606201 22.43977051 30.30109863 23.08510742 30.6875 23.75 C31.82837749 25.70696376 32.97002808 27.66347493 34.11177063 29.61993408 C35.14044155 31.38360089 36.16732117 33.14831214 37.1940918 34.91308594 C38.89060957 37.91036712 38.89060957 37.91036712 40.59032154 40.26622295 C42.34331542 43.66578857 42.369526 46.00983978 42.36076355 49.8273468 C42.36332682 50.50132151 42.3658901 51.17529622 42.36853105 51.86969441 C42.37345987 54.12081363 42.35699174 56.37125736 42.34057617 58.62231445 C42.3397297 60.2387948 42.34020543 61.8552763 42.34190369 63.47175598 C42.34276429 67.85571879 42.32512806 72.23943527 42.30418181 76.62334085 C42.28542582 81.20641598 42.28366542 85.78949678 42.28010559 90.37260437 C42.27078196 99.0494043 42.24616386 107.72609081 42.21605712 116.40284079 C42.18252302 126.2818338 42.16602959 136.16083224 42.15097082 146.039868 C42.11961458 166.35998936 42.06459852 186.67995525 42 207 C28.14 207 14.28 207 0 207 C0 138.69 0 70.38 0 0 Z " fill="#FFFFFF" transform="translate(631,53)"/>
<path d="M0 0 C10.50082185 9.94902707 15.74438778 23.16702394 16.1875 37.5 C15.52388824 61.64969754 -0.44983219 75.41422684 -16.3359375 91.3515625 C-16.93743244 91.95588482 -17.53892738 92.56020714 -18.15864944 93.18284225 C-21.32593469 96.36494468 -24.49594462 99.54430063 -27.66845703 102.72119141 C-30.93334015 105.99161449 -34.18879594 109.27126236 -37.44229698 112.55300331 C-39.96287487 115.09218501 -42.49011655 117.62465309 -45.01924515 120.1553154 C-46.22338923 121.36247847 -47.42504098 122.57213317 -48.62409592 123.78435135 C-50.2936687 125.47097877 -51.97244834 127.14788823 -53.65380859 128.82275391 C-54.38638382 129.56915131 -54.38638382 129.56915131 -55.13375854 130.33062744 C-59.05517821 134.20479388 -62.15648791 135.81536254 -67.625 136.3125 C-74.61968452 135.69893118 -78.75045033 131.87740488 -83.46484375 127.11083984 C-84.06080353 126.52013702 -84.65676331 125.9294342 -85.27078247 125.3208313 C-87.22977841 123.37498764 -89.1776539 121.41843483 -91.125 119.4609375 C-92.49166838 118.09629202 -93.85878166 116.73209197 -95.22631836 115.36831665 C-98.08905241 112.5100002 -100.94630509 109.6463431 -103.79980469 106.77880859 C-107.44101844 103.12055233 -111.09546962 99.47586565 -114.75419617 95.83513451 C-117.58051551 93.0197097 -120.39958399 90.19711139 -123.21658325 87.37236404 C-124.56027615 86.02668225 -125.90616691 84.68319109 -127.25436401 83.34202194 C-144.00422418 66.66032798 -144.00422418 66.66032798 -147.5 56.25 C-147.80550781 55.36828125 -148.11101562 54.4865625 -148.42578125 53.578125 C-152.37411336 40.21453938 -150.77388154 26.81772298 -144.9375 14.32421875 C-138.15959849 1.94299524 -127.62199368 -6.33712777 -114.26538086 -10.61572266 C-102.44637301 -13.8628776 -89.35621218 -13.01607019 -78.1875 -8 C-75.70042681 -6.46977435 -73.37746119 -4.88762758 -71.08984375 -3.07421875 C-69.2661996 -1.81113911 -69.2661996 -1.81113911 -67.234375 -2.15234375 C-64.7964011 -3.16196271 -62.71546973 -4.44083119 -60.5 -5.875 C-40.93708454 -17.87167022 -17.36475057 -14.219537 0 0 Z M-128 14.8125 C-134.54915122 22.74441864 -137.07499461 31.83415262 -136.1875 42 C-132.82756928 59.0906712 -118.97666434 70.36675363 -107.15234375 82.1328125 C-106.02155383 83.26173193 -104.89098849 84.39087636 -103.76063538 85.52023315 C-100.81859937 88.45849364 -97.87357073 91.39373586 -94.92785645 94.32830811 C-91.90903534 97.33680688 -88.89312616 100.34822182 -85.87695312 103.359375 C-79.98327623 109.24240243 -74.08642693 115.12223682 -68.1875 121 C-61.29312996 115.3303326 -55.01567269 109.04811417 -48.68359375 102.76953125 C-47.79426997 101.88819299 -47.79426997 101.88819299 -46.88698006 100.98904991 C-43.75161069 97.88026751 -40.61983257 94.76791287 -37.49047852 91.65307617 C-34.91861369 89.0945514 -32.33967943 86.54349365 -29.75415039 83.9987793 C-26.60953472 80.90377226 -23.47764652 77.796398 -20.35420418 74.68002892 C-19.17166759 73.50415229 -17.98492303 72.33249002 -16.79369926 71.16541481 C-7.53685177 62.08568698 0.72996495 53.10443044 1.10571289 39.46728516 C1.2158663 27.51773166 -1.3130811 20.03855648 -9.75 11.19921875 C-17.85875832 3.88314353 -26.84024287 1.47736606 -37.59765625 1.703125 C-47.78875654 2.54591458 -54.06349664 7.06932276 -61.265625 13.953125 C-64.92238083 16.51480956 -66.80811683 16.68068127 -71.1875 16 C-73.55859375 14.390625 -73.55859375 14.390625 -75.625 12.25 C-82.5099038 5.63394643 -90.33015938 2.03446776 -100 1.6875 C-111.2331174 1.97683787 -120.37345988 6.66670609 -128 14.8125 Z " fill="#FFFFFF" transform="translate(1841.1875,138)"/>
</svg>
